<svg xmlns="http://www.w3.org/2000/svg" viewBox="0 0 772 1180">
  <defs>
    <style>
      .cls-1 {
        fill: #fff;
      }

      .cls-1, .cls-4 {
        font-size: 452px;
        font-family: GurmukhiSangamMN, Gurmukhi Sangam MN;
      }

      .cls-2, .cls-3 {
        fill: none;
        stroke-width: 14px;
      }

      .cls-2 {
        stroke: #fff;
      }

      .cls-3 {
        stroke: #791e0e;
      }

      .cls-4 {
        fill: #791e0e;
      }
    </style>
  </defs>
  <g id="Symbol_1_1" data-name="Symbol 1 – 1" transform="translate(-289.5 25.5)">
    <text id="B_" data-name="B
" class="cls-1" transform="translate(667.5 425.5)"><tspan x="0" y="0">B</tspan><tspan x="0" y="586"></tspan></text>
    <line id="Line_1" data-name="Line 1" class="cls-2" x2="74" transform="translate(911.5 188.5)"/>
    <line id="Line_2" data-name="Line 2" class="cls-2" y2="74" transform="translate(991.5 118.5)"/>
    <line id="Line_3" data-name="Line 3" class="cls-2" y2="74" transform="translate(991.5 186.5)"/>
    <line id="Line_4" data-name="Line 4" class="cls-2" x2="70" transform="translate(991.5 125.5)"/>
    <line id="Line_5" data-name="Line 5" class="cls-2" x2="70" transform="translate(989.5 253.5)"/>
    <line id="Line_6" data-name="Line 6" class="cls-2" x2="70" transform="translate(921.5 355.5)"/>
    <line id="Line_7" data-name="Line 7" class="cls-2" y2="74" transform="translate(991.5 285.5)"/>
    <line id="Line_8" data-name="Line 8" class="cls-2" y2="74" transform="translate(991.5 353.5)"/>
    <line id="Line_9" data-name="Line 9" class="cls-2" x2="70" transform="translate(991.5 292.5)"/>
    <line id="Line_10" data-name="Line 10" class="cls-2" x2="70" transform="translate(989.5 420.5)"/>
    <line id="Line_11" data-name="Line 11" class="cls-3" x1="81" transform="translate(360.5 181.5)"/>
    <line id="Line_12" data-name="Line 12" class="cls-3" y2="74" transform="translate(360.5 251.5) rotate(180)"/>
    <line id="Line_13" data-name="Line 13" class="cls-3" y2="74" transform="translate(360.5 183.5) rotate(180)"/>
    <line id="Line_14" data-name="Line 14" class="cls-3" x2="70" transform="translate(360.5 244.5) rotate(180)"/>
    <line id="Line_15" data-name="Line 15" class="cls-3" x2="70" transform="translate(362.5 116.5) rotate(180)"/>
    <line id="Line_16" data-name="Line 16" class="cls-3" x2="70" transform="translate(429.5 344.5) rotate(180)"/>
    <line id="Line_17" data-name="Line 17" class="cls-3" y2="74" transform="translate(359.5 413.5) rotate(180)"/>
    <line id="Line_18" data-name="Line 18" class="cls-3" y2="74" transform="translate(359.5 345.5) rotate(180)"/>
    <line id="Line_19" data-name="Line 19" class="cls-3" x2="70" transform="translate(359.5 406.5) rotate(180)"/>
    <line id="Line_20" data-name="Line 20" class="cls-3" x2="70" transform="translate(361.5 278.5) rotate(180)"/>
    <text id="S_" data-name="S
" class="cls-4" transform="translate(401.5 433.5)"><tspan x="0" y="0">S</tspan><tspan x="0" y="586"></tspan></text>
  </g>
</svg>
